<?xml version="1.0" encoding="utf-8"?>
<!-- Generator: Adobe Illustrator 24.2.1, SVG Export Plug-In . SVG Version: 6.00 Build 0)  -->
<svg version="1.1" id="Layer_1" xmlns="http://www.w3.org/2000/svg" xmlns:xlink="http://www.w3.org/1999/xlink" x="0px" y="0px"
	 viewBox="0 0 851.53 851.53" style="enable-background:new 0 0 851.53 851.53;" xml:space="preserve">
<style type="text/css">
	.st0{fill:#0C91CE;}
</style>
<g>
	<path class="st0" d="M138.03,642.42c-0.37,2.24-1.02,4.79-1.95,7.66c-0.93,2.86-1.91,5.58-2.96,8.15c-1.04,2.57-2.01,4.73-2.9,6.47
		c-0.89,1.74-1.49,2.61-1.78,2.61c-0.97,0-2.21-0.35-3.74-1.06c-1.52-0.71-3.2-1.62-5.02-2.74c-1.82-1.12-3.66-2.39-5.52-3.8
		c-1.86-1.41-3.59-2.84-5.19-4.29c-1.6-1.45-2.96-2.86-4.07-4.23c-1.12-1.37-1.82-2.55-2.12-3.55c0-0.5,0.43-1.95,1.28-4.36
		c0.86-2.41,1.84-5.02,2.96-7.84c1.12-2.82,2.27-5.44,3.46-7.84c1.19-2.41,2.12-3.86,2.79-4.36c1.19,1.49,2.75,3.17,4.68,5.04
		c1.93,1.87,4.05,3.69,6.36,5.48c2.31,1.78,4.65,3.46,7.03,5.04C133.72,640.38,135.95,641.59,138.03,642.42z M149.63,615.53
		c3.05,4.23,6.82,8.01,11.32,11.33c4.5,3.32,9.05,5.93,13.66,7.84c-1.56,4.56-2.96,8.38-4.18,11.45c-1.23,3.07-2.29,5.54-3.18,7.41
		s-1.62,3.21-2.17,4.05c-0.56,0.83-0.95,1.25-1.17,1.25c-0.6,0-1.52-0.27-2.79-0.81c-1.27-0.54-2.72-1.31-4.35-2.3
		c-1.64-1-3.37-2.14-5.19-3.42c-1.82-1.29-3.55-2.66-5.19-4.11c-1.64-1.45-3.09-2.97-4.35-4.54c-1.27-1.58-2.16-3.16-2.68-4.73
		c0-0.58,0.35-1.89,1.06-3.92c0.71-2.03,1.56-4.29,2.57-6.78s2.1-4.92,3.29-7.28C147.47,618.58,148.59,616.77,149.63,615.53z"/>
	<path class="st0" d="M116.28,420.6c0,1.16-0.45,2.24-1.34,3.24c-7.06,9.05-12.86,17.57-17.4,25.58
		c-4.54,8.01-8.12,15.54-10.76,22.59c-2.64,7.05-4.48,13.65-5.52,19.79c-1.04,6.14-1.56,11.87-1.56,17.18
		c0,9.13,1.12,17.09,3.35,23.9c2.23,6.8,5.28,12.45,9.15,16.93c3.87,4.48,8.42,7.84,13.66,10.08c5.24,2.24,10.87,3.36,16.9,3.36
		c6.54,0,13.22-1.33,20.02-3.98c6.8-2.66,13.38-6.16,19.74-10.52c6.36-4.36,12.32-9.36,17.9-15c5.58-5.64,10.43-11.43,14.56-17.36
		c4.13-5.93,7.4-11.83,9.81-17.68c2.42-5.85,3.63-11.14,3.63-15.87c0-3.07-0.47-5.95-1.39-8.65c-0.93-2.7-2.45-5.17-4.57-7.41
		c-2.12-2.24-4.96-4.31-8.53-6.22c-3.57-1.91-7.96-3.69-13.16-5.35c-4.61-1.08-8.76-2.43-12.44-4.04c-3.68-1.62-6.8-3.69-9.37-6.22
		c-2.57-2.53-4.52-5.68-5.86-9.46c-1.34-3.78-2.01-8.4-2.01-13.88c0-2.32,0.2-4.85,0.61-7.59c0.41-2.74,0.93-5.56,1.56-8.46
		c0.63-2.9,1.34-5.83,2.12-8.78c0.78-2.94,1.58-5.79,2.4-8.53c1.41-5.14,3.46-10.23,6.13-15.25c2.68-5.02,5.73-9.79,9.15-14.31
		c3.42-4.52,7.04-8.73,10.87-12.63c3.83-3.9,7.66-7.26,11.49-10.08c3.83-2.82,7.49-5.02,10.99-6.6c3.49-1.58,6.62-2.36,9.37-2.36
		c1.86,0,3.44,0.5,4.74,1.49c1.3,1,2.34,2.24,3.12,3.73s1.34,3.17,1.67,5.04s0.5,3.67,0.5,5.41c0,3.4-0.21,6.6-0.61,9.58
		c-0.41,2.99-0.89,5.91-1.45,8.78c-0.56,2.86-1.13,5.71-1.73,8.53c-0.6,2.82-1.04,5.73-1.34,8.71c-0.22,2.32-0.74,3.49-1.56,3.49
		c-0.37,0-0.65-0.21-0.84-0.62c-0.19-0.41-0.35-0.95-0.5-1.62c-0.22-0.91-0.37-2.05-0.45-3.42c-0.07-1.37-0.15-2.84-0.22-4.42
		c-0.07-1.58-0.17-3.13-0.28-4.67c-0.11-1.53-0.37-2.93-0.78-4.17c-0.41-1.24-0.97-2.26-1.67-3.05c-0.71-0.79-1.66-1.18-2.84-1.18
		c-2.16,0-4.85,0.83-8.09,2.49c-3.23,1.66-6.64,3.82-10.21,6.47c-3.57,2.66-7.16,5.64-10.76,8.96c-3.61,3.32-6.84,6.66-9.7,10.02
		c-2.86,3.36-5.19,6.56-6.97,9.58c-1.78,3.03-2.68,5.54-2.68,7.53c0,2.91,0.72,5.17,2.17,6.78c1.45,1.62,3.36,2.95,5.74,3.98
		c2.38,1.04,5.13,1.85,8.25,2.43c3.05,0.67,6.19,1.39,9.42,2.18c3.23,0.79,6.45,1.8,9.65,3.05c3.2,1.25,6.1,2.99,8.7,5.23
		c4.46,3.98,7.43,8.59,8.92,13.82c1.49,5.23,2.23,10.91,2.23,17.05c0,4.73-0.3,10.27-0.89,16.62c-0.6,6.35-1.34,13.34-2.23,20.97
		c-1.27,10.62-3.55,20.62-6.86,30c-3.31,9.38-7.34,18.03-12.1,25.95c-4.76,7.92-10.09,15.04-16,21.35
		c-5.91,6.31-12.08,11.66-18.51,16.06c-6.43,4.4-12.98,7.78-19.63,10.15c-6.66,2.37-13.07,3.55-19.24,3.55
		c-9.3,0-17.4-2.01-24.31-6.04c-6.92-4.03-12.7-9.44-17.34-16.24c-4.65-6.81-8.12-14.67-10.43-23.59
		c-2.31-8.92-3.46-18.28-3.46-28.07c0-8.3,0.58-16.29,1.73-23.96c1.15-7.68,2.94-15.21,5.35-22.59c2.42-7.39,5.5-14.71,9.26-21.97
		c3.75-7.26,8.27-14.71,13.55-22.34c2.53-3.57,4.74-6.54,6.64-8.9c1.9-2.37,3.55-4.27,4.96-5.73c1.41-1.45,2.57-2.49,3.46-3.11
		c0.89-0.62,1.6-0.93,2.12-0.93c0.45,0,0.89,0.08,1.34,0.25C116.06,419.77,116.28,420.1,116.28,420.6z"/>
	<path class="st0" d="M294.51,451.22c-0.37,0-0.61-0.14-0.73-0.44c-0.11-0.29-0.17-0.64-0.17-1.06c0-2.24-0.73-4.48-2.17-6.72
		c-1.45-2.24-3.07-4.61-4.85-7.09c-1.78-2.49-3.4-5.17-4.85-8.03c-1.45-2.86-2.17-6.04-2.17-9.52c0-2.57,0.18-5.12,0.56-7.66
		c0.37-2.53,0.8-5,1.28-7.41c0.48-2.41,0.98-4.77,1.51-7.1c0.52-2.24,0.97-4.4,1.34-6.47c1.04-6.14,2.6-11.43,4.68-15.87
		c2.08-4.44,4.55-8.09,7.42-10.95c2.86-2.86,6.02-4.96,9.48-6.29c3.46-1.33,7.12-1.99,10.99-1.99c4.98,0,9.63,1.23,13.94,3.67
		c4.31,2.45,8.07,5.79,11.27,10.02c3.2,4.23,5.71,9.13,7.53,14.69c1.82,5.56,2.73,11.45,2.73,17.68c0,3.73-0.39,7.7-1.17,11.89
		c-0.78,4.19-1.58,8.03-2.4,11.51c-2.01,9.63-4.2,17.74-6.58,24.34c-2.38,6.6-5.04,12.24-7.97,16.93
		c-2.94,4.69-6.19,8.65-9.76,11.89c-3.57,3.24-7.51,6.27-11.82,9.09c-2.75,1.83-5.84,3.38-9.26,4.67c-3.42,1.29-6.92,2.38-10.48,3.3
		c-3.57,0.91-7.12,1.68-10.65,2.3c-3.53,0.62-6.8,1.12-9.81,1.49s-5.63,0.68-7.86,0.93c-2.31,0.25-3.98,0.5-5.02,0.75
		c-2.23,0.41-4.17,1-5.8,1.74c-1.71,0.66-2.97,1-3.79,1c-0.82,0-1.32-0.12-1.51-0.37c-0.19-0.25-0.28-0.62-0.28-1.12
		c0-0.25,0.22-0.56,0.67-0.93c0.45-0.37,1-0.79,1.67-1.25c0.67-0.46,1.38-0.89,2.12-1.31c0.74-0.42,1.41-0.83,2.01-1.24
		c5.2-3.07,10.97-6.49,17.29-10.27c6.32-3.78,12.7-7.78,19.13-12.01c6.43-4.23,12.66-8.69,18.68-13.38
		c6.02-4.69,11.36-9.48,16-14.38c4.65-4.9,8.38-9.85,11.21-14.88c2.83-5.02,4.24-10.02,4.24-15c0-3.32-0.61-6.87-1.84-10.64
		c-1.23-3.78-3.07-7.28-5.52-10.52c-2.45-3.24-5.56-5.91-9.31-8.03c-3.76-2.12-8.16-3.17-13.22-3.17c-2.9,0-5.6,0.44-8.09,1.31
		c-2.49,0.87-4.67,1.99-6.52,3.36c-1.86,1.37-3.31,2.91-4.35,4.61c-1.04,1.7-1.56,3.34-1.56,4.92c0,1.49,0.58,3.05,1.73,4.67
		c1.15,1.62,2.43,3.38,3.85,5.29c1.41,1.99,2.69,4.17,3.85,6.54c1.15,2.37,1.73,5,1.73,7.9c0,3.73-0.48,7.93-1.45,12.57
		c-0.97,4.65-2.42,9.42-4.35,14.32c-0.22,0.5-0.43,0.91-0.61,1.24C295.27,451.05,294.96,451.22,294.51,451.22z"/>
	<path class="st0" d="M369.02,312.05c1.56-4.98,3.16-10.04,4.8-15.19c1.56-5.14,3.31-10.54,5.24-16.18h0.89
		c5.72,14.44,10.61,29.05,14.67,43.82c4.05,14.77,7.42,29.88,10.09,45.31c2.6,15.44,5.52,29.9,8.76,43.38
		c3.23,13.49,6.64,25.41,10.21,35.79l-2.23,10.46c-1.71,0-3.57-0.73-5.58-2.18c-2.01-1.45-4.13-4.19-6.36-8.21
		c-2.23-4.02-4.48-9.58-6.75-16.68c-2.27-7.1-4.44-16.33-6.52-27.7c-2.45-13.03-5.95-27.22-10.48-42.57
		C381.21,346.74,375.63,330.06,369.02,312.05z"/>
	<path class="st0" d="M543.68,308.44c-0.45,2.24-1.21,4.75-2.29,7.53c-1.08,2.78-2.21,5.41-3.4,7.9c-1.19,2.49-2.27,4.56-3.23,6.22
		c-0.97,1.66-1.56,2.49-1.78,2.49c-1.34,0-3.27-0.7-5.8-2.12c-2.53-1.41-5.09-3.11-7.7-5.1c-2.6-1.99-4.94-4.06-7.03-6.22
		c-2.08-2.16-3.35-3.98-3.79-5.48c0-0.33,0.19-1.08,0.56-2.24c0.37-1.16,0.86-2.53,1.45-4.11c0.6-1.58,1.28-3.28,2.06-5.1
		c0.78-1.82,1.56-3.57,2.34-5.23c0.78-1.66,1.52-3.13,2.23-4.42c0.71-1.29,1.32-2.22,1.84-2.8c1.19,1.58,2.77,3.26,4.74,5.04
		c1.97,1.79,4.07,3.55,6.3,5.29c2.23,1.74,4.52,3.36,6.86,4.85C539.38,306.45,541.59,307.61,543.68,308.44z M536.54,284.54
		c-0.82,0-2.29-0.6-4.41-1.8c-2.12-1.2-4.35-2.72-6.69-4.54c-2.34-1.82-4.55-3.78-6.64-5.85c-2.08-2.07-3.46-3.98-4.13-5.73
		c0.45-1.58,1.13-3.61,2.06-6.1c0.93-2.49,1.9-4.92,2.9-7.28c1-2.37,1.99-4.5,2.96-6.41c0.97-1.91,1.75-3.11,2.34-3.61
		c0.97,1.16,2.31,2.57,4.02,4.23c1.71,1.66,3.63,3.3,5.74,4.92s4.33,3.15,6.64,4.61c2.31,1.45,4.57,2.59,6.8,3.42
		c-0.67,2.49-1.52,5.15-2.57,7.97c-1.04,2.82-2.12,5.44-3.23,7.84c-1.12,2.41-2.19,4.4-3.23,5.98
		C538.06,283.75,537.21,284.54,536.54,284.54z M579.14,300.23c-1.64,4.48-3.09,8.24-4.35,11.27c-1.27,3.03-2.34,5.46-3.23,7.28
		c-0.89,1.83-1.62,3.13-2.17,3.92c-0.56,0.79-0.95,1.18-1.17,1.18c-0.89,0-2.45-0.56-4.68-1.68c-2.23-1.12-4.59-2.57-7.08-4.36
		c-2.49-1.78-4.83-3.8-7.03-6.04c-2.19-2.24-3.66-4.52-4.41-6.85c0-0.58,0.35-1.89,1.06-3.92c0.71-2.03,1.6-4.29,2.68-6.78
		c1.08-2.49,2.21-4.9,3.4-7.22c1.19-2.32,2.3-4.06,3.35-5.23c3.05,3.9,6.6,7.45,10.65,10.64
		C570.2,295.64,574.53,298.23,579.14,300.23z"/>
	<path class="st0" d="M571.11,420.97c-2.01,0-3.9-0.5-5.69-1.49c-1.78-1-3.31-2.74-4.57-5.23h-0.89
		c-5.28,10.04-10.75,17.78-16.4,23.21c-5.65,5.43-11.34,8.15-17.06,8.15c-2.6,0-4.95-0.5-7.03-1.49c-2.08-1-4.05-2.12-5.91-3.36
		c-1.86-1.25-3.63-2.37-5.3-3.36c-1.67-1-3.33-1.49-4.96-1.49c-1.27,0-2.38,0.73-3.35,2.18c-0.97,1.45-1.95,3.38-2.96,5.79
		c-1,2.41-2.06,5.18-3.18,8.34c-1.12,3.15-2.45,6.41-4.02,9.77c-1.56,3.36-3.38,6.72-5.46,10.08c-2.08,3.36-4.54,6.49-7.36,9.4
		c-4.39,4.4-8.96,7.61-13.72,9.65c-4.76,2.03-9.78,3.05-15.06,3.05c-4.61,0-9.03-1-13.27-2.99c-4.24-1.99-8.2-4.98-11.88-8.96
		s-7.06-9.02-10.15-15.12c-3.09-6.1-5.74-13.26-7.97-21.47c-1.49-5.64-2.86-11.35-4.13-17.12c-1.26-5.77-2.34-11.14-3.23-16.12
		c-0.89-4.98-1.6-9.34-2.12-13.07c-0.52-3.73-0.78-6.39-0.78-7.97c0-3.9,0.22-7.72,0.67-11.45s1.12-7.22,2.01-10.46h1.34
		c2.23,2.91,3.98,5.62,5.24,8.15c1.26,2.53,2.12,4.88,2.57,7.03c0.22,1.08,0.59,2.82,1.12,5.23c0.52,2.41,1.15,5.19,1.9,8.34
		c0.74,3.15,1.56,6.56,2.45,10.21c0.89,3.65,1.82,7.26,2.79,10.83c1.86,7.14,3.9,13.21,6.13,18.24c2.23,5.02,4.76,9.09,7.58,12.2
		c2.83,3.11,6.04,5.37,9.65,6.78c3.61,1.41,7.71,2.12,12.32,2.12c2.83,0,5.82-0.71,8.98-2.12c3.16-1.41,6.28-3.36,9.37-5.85
		c3.08-2.49,6.04-5.5,8.87-9.02c2.83-3.53,5.35-7.41,7.58-11.64c1.63-2.99,3.23-6.39,4.8-10.21c1.49-3.9,2.99-7.55,4.52-10.95
		c1.52-3.4,3.08-6.29,4.68-8.65c1.6-2.37,3.25-3.55,4.96-3.55c1.41,0,2.83,0.71,4.24,2.12c1.41,1.49,3.01,3.11,4.8,4.85
		c1.79,1.74,3.88,3.34,6.3,4.79c2.42,1.45,5.33,2.18,8.76,2.18c2.6,0,5.35-0.91,8.25-2.74c2.9-1.82,6.02-4.73,9.37-8.71
		c1.41-1.74,2.66-3.71,3.74-5.91c1.08-2.2,2.06-4.54,2.96-7.03c0.89-2.49,1.69-5.06,2.4-7.72c0.71-2.65,1.39-5.31,2.06-7.97
		c0.59-2.24,1.19-4.05,1.78-5.42c0.59-1.37,1.41-2.05,2.45-2.05c1.04,0,1.75,0.42,2.12,1.24c0.37,0.83,0.56,1.74,0.56,2.74
		c0,1.49-0.11,3.03-0.33,4.61c-0.22,1.66-0.33,3.11-0.33,4.36c0,3.65,0.82,6.22,2.45,7.72c1.63,1.49,3.87,2.24,6.69,2.24
		c2.38,0,4.85-0.64,7.42-1.93c2.57-1.29,5.3-3.55,8.2-6.78c1.78-1.99,3.23-3.96,4.35-5.91c1.12-1.95,1.67-4.05,1.67-6.29
		c0-2.66-0.32-5.52-0.95-8.59c-0.63-3.07-1.8-6.6-3.51-10.58c1.34-3.65,2.96-7.61,4.85-11.89c1.9-4.27,4.14-8.86,6.75-13.75h0.67
		c1.26,4.9,2.25,9.61,2.96,14.13c0.71,4.52,1.06,8.86,1.06,13.01c0,4.98-0.52,9.3-1.56,12.95c-1.04,3.73-1.78,6.89-2.23,9.46
		c-1.49,8.8-3.42,16.41-5.8,22.84c-2.38,6.43-4.96,11.76-7.75,16c-2.79,4.23-5.69,7.36-8.7,9.4
		C576.86,419.95,573.94,420.97,571.11,420.97z"/>
	<path d="M655.17,481.18c1.73,0,3.02,0.5,3.87,1.5c0.85,1,1.28,2.43,1.28,4.28c0,2-0.48,3.57-1.45,4.7c-0.97,1.13-2.35,1.7-4.14,1.7
		c-1.66,0-2.95-0.51-3.87-1.52c-0.92-1.01-1.38-2.47-1.38-4.38c0-2.03,0.51-3.58,1.52-4.67C652,481.72,653.4,481.18,655.17,481.18z"
		/>
	<path d="M700.45,472.54c0,0.15-0.04,0.29-0.1,0.42c-0.07,0.13-0.17,0.19-0.31,0.19c-0.21,0-0.34-0.13-0.41-0.39
		c-0.53-1.59-1.13-2.83-1.8-3.7c-0.67-0.87-1.24-1.31-1.73-1.31c-0.18,0-0.33,0.12-0.43,0.37s-0.18,0.54-0.24,0.89
		c-0.06,0.35-0.1,0.73-0.14,1.16c-0.03,0.42-0.06,0.8-0.09,1.14c-0.28,3.73-0.66,6.96-1.14,9.7s-1.07,5.13-1.74,7.17
		c-0.68,2.04-1.45,3.8-2.31,5.26s-1.8,2.78-2.81,3.93c-1.2,1.34-2.57,2.47-4.13,3.39s-3.16,1.72-4.82,2.37
		c-1.66,0.66-3.31,1.19-4.96,1.62c-1.65,0.42-3.14,0.79-4.47,1.1c-0.74,0.15-1.36,0.36-1.87,0.62c-0.51,0.26-0.83,0.39-0.97,0.39
		c-0.32,0-0.48-0.1-0.48-0.31c0-0.08,0.1-0.21,0.31-0.41c0.21-0.19,0.47-0.4,0.78-0.64c0.31-0.23,0.65-0.48,1.02-0.73
		c0.34-0.26,0.66-0.49,0.93-0.69c1.75-1.31,3.63-2.79,5.65-4.45c2.01-1.66,4-3.62,5.94-5.88c1.95-2.26,3.78-4.9,5.51-7.9
		s3.17-6.51,4.32-10.52c0.32-1.13,0.6-2.29,0.85-3.49c0.24-1.19,0.45-2.37,0.62-3.53c0.17-1.16,0.33-2.29,0.47-3.39
		c0.14-1.08,0.28-2.11,0.41-3.08c0.28-2.08,0.62-3.76,1.02-5.03c0.4-1.27,0.94-1.91,1.61-1.91c0.55,0,1.17,0.29,1.85,0.87
		c0.68,0.58,1.33,1.52,1.95,2.83c0.37,0.75,0.67,1.75,0.9,3.03c0.23,1.27,0.41,2.59,0.54,3.95s0.21,2.68,0.24,3.95
		C700.44,470.79,700.45,471.8,700.45,472.54z"/>
	<path d="M743.35,465.83c-0.67,1.31-1.43,2.42-2.28,3.33c-0.85,0.91-1.8,1.68-2.83,2.29c0.12,0.75,0.18,1.46,0.19,2.16
		c0.01,0.69,0.02,1.41,0.02,2.16c0,2.78-0.21,5.32-0.64,7.63c-0.43,2.31-1.04,4.43-1.85,6.36c-0.81,1.93-1.79,3.68-2.95,5.26
		c-1.16,1.58-2.48,3.03-3.96,4.34c-1.31,1.05-2.58,1.9-3.8,2.54s-2.52,1.2-3.9,1.66c-1.38,0.46-2.91,0.89-4.59,1.27
		c-1.68,0.39-3.64,0.85-5.87,1.39c-0.71,0.18-1.39,0.38-2.02,0.6c-0.63,0.22-1.2,0.42-1.71,0.62c-0.51,0.19-0.92,0.37-1.24,0.52
		c-0.32,0.13-0.53,0.19-0.62,0.19c-0.18,0-0.35-0.03-0.48-0.08c-0.14-0.05-0.21-0.18-0.21-0.39c0-0.23,0.25-0.5,0.76-0.81
		c0.51-0.33,1.24-0.83,2.21-1.5c3.59-2.13,6.78-4.25,9.55-6.34s5.19-4.11,7.25-6.03c2.06-1.93,3.79-3.75,5.2-5.47s2.54-3.3,3.4-4.72
		c0.86-1.43,1.49-2.67,1.87-3.74c0.38-1.07,0.57-1.91,0.57-2.52c0-0.46-0.08-0.93-0.22-1.41c-0.15-0.48-0.4-0.98-0.74-1.52
		c-1.22,0.31-2.3,0.54-3.25,0.69c-0.94,0.15-1.8,0.23-2.56,0.23c-1.17,0-2.21-0.19-3.11-0.58c-0.9-0.39-1.66-0.9-2.28-1.54
		c-0.62-0.64-1.09-1.37-1.4-2.18c-0.31-0.81-0.47-1.64-0.47-2.49c0-0.41,0.05-1.01,0.14-1.81c0.09-0.8,0.21-1.66,0.34-2.58
		c0.12-0.92,0.24-1.87,0.36-2.83c0.13-0.96,0.24-1.84,0.33-2.64c0.11-1.16,0.33-2.15,0.66-2.99c0.32-0.83,0.72-1.52,1.21-2.06
		c0.48-0.54,1.04-0.94,1.66-1.2c0.62-0.26,1.29-0.39,2-0.39c1.15,0,2.16,0.26,3.02,0.79c0.86,0.53,1.64,1.31,2.33,2.35
		c0.69,1.04,1.33,2.35,1.92,3.91c0.59,1.57,1.18,3.38,1.78,5.44c1.43,0.28,2.67,0.59,3.71,0.92S742.73,465.4,743.35,465.83z"/>
	<path d="M750.02,424.82c-0.12,0.69-0.32,1.48-0.6,2.37c-0.29,0.89-0.59,1.73-0.92,2.52c-0.32,0.8-0.62,1.46-0.9,2
		s-0.46,0.81-0.55,0.81c-0.3,0-0.68-0.11-1.16-0.33c-0.47-0.22-0.99-0.5-1.55-0.85c-0.56-0.35-1.13-0.74-1.71-1.18
		c-0.58-0.44-1.11-0.88-1.61-1.33c-0.5-0.45-0.92-0.89-1.26-1.31c-0.35-0.42-0.56-0.79-0.66-1.1c0-0.15,0.13-0.6,0.4-1.35
		c0.26-0.75,0.57-1.55,0.92-2.43c0.34-0.87,0.7-1.68,1.07-2.43c0.37-0.75,0.66-1.19,0.86-1.35c0.37,0.46,0.85,0.98,1.45,1.56
		s1.25,1.14,1.97,1.7c0.71,0.55,1.44,1.07,2.18,1.56C748.68,424.19,749.37,424.56,750.02,424.82z M753.61,416.49
		c0.94,1.31,2.11,2.48,3.51,3.51c1.39,1.03,2.8,1.84,4.23,2.43c-0.48,1.41-0.92,2.6-1.29,3.55c-0.38,0.95-0.71,1.72-0.98,2.29
		c-0.28,0.58-0.5,1-0.67,1.25s-0.29,0.39-0.36,0.39c-0.18,0-0.47-0.08-0.86-0.25c-0.39-0.17-0.84-0.4-1.35-0.71
		c-0.51-0.31-1.04-0.66-1.61-1.06c-0.56-0.4-1.1-0.82-1.61-1.27c-0.51-0.45-0.96-0.93-1.35-1.43c-0.39-0.5-0.67-0.98-0.83-1.45
		c0-0.18,0.11-0.58,0.33-1.21c0.22-0.63,0.48-1.33,0.79-2.1s0.65-1.52,1.02-2.26S753.29,416.88,753.61,416.49z"/>
	<path d="M722,468.92c0.3-0.77,0.68-1.51,1.14-2.22c0.46-0.71,0.97-1.33,1.54-1.87c0.57-0.54,1.16-0.97,1.78-1.29
		s1.23-0.48,1.83-0.48c0.67,0,1.45,0.05,2.35,0.15c0.9,0.1,1.73,0.15,2.49,0.15c1.54,0,3.08-0.21,4.61-0.64
		c1.53-0.42,3.07-1.1,4.61-2.02c1.54-0.92,3.1-2.1,4.66-3.53c1.57-1.43,3.15-3.14,4.77-5.15c0.48-0.67,0.92-1.36,1.31-2.08
		c0.39-0.72,0.74-1.5,1.05-2.35c0.31-0.85,0.58-1.77,0.79-2.78c0.22-1,0.38-2.12,0.5-3.35c0.05-0.51,0.16-0.92,0.33-1.23
		s0.43-0.46,0.78-0.46c0.32,0,0.55,0.15,0.69,0.44c0.14,0.3,0.23,0.66,0.28,1.1c0.05,0.72,0.13,1.35,0.24,1.89
		c0.12,0.54,0.33,1.06,0.64,1.56c0.31,0.5,0.74,1.02,1.29,1.56c0.55,0.54,1.3,1.16,2.25,1.85c1.59,1.23,2.72,2.45,3.4,3.64
		c0.68,1.19,1.02,2.37,1.02,3.53v1c-0.55,0.44-1.13,0.74-1.74,0.91c-0.61,0.17-1.23,0.25-1.85,0.25c-0.74,0-1.5-0.19-2.3-0.56
		c-0.79-0.37-1.73-0.98-2.82-1.83l-0.21,0.08c-0.35,1.08-0.92,2.29-1.71,3.64c-0.79,1.35-1.77,2.72-2.94,4.11
		c-1.16,1.39-2.48,2.74-3.96,4.05c-1.47,1.31-3.06,2.48-4.77,3.51c-1.71,1.03-3.51,1.86-5.41,2.49c-1.9,0.63-3.84,0.94-5.82,0.94
		c-2.53,0-4.73-0.37-6.6-1.12C724.39,472.07,722.97,470.77,722,468.92z"/>
	<path d="M756.96,443.67c1.38,1.54,2.63,2.61,3.75,3.2c1.12,0.59,2.15,0.89,3.09,0.89c1.45,0,2.92-0.37,4.4-1.12
		c1.49-0.75,2.99-1.97,4.51-3.66s2.67-3.35,3.45-4.95c0.78-1.61,1.17-3.3,1.17-5.07c0-0.72-0.12-1.69-0.35-2.91
		c-0.23-1.22-0.52-2.58-0.86-4.09c-0.34-1.5-0.72-3.09-1.14-4.76c-0.41-1.67-0.79-3.33-1.14-4.97s-0.63-3.22-0.86-4.72
		c-0.23-1.5-0.35-2.83-0.35-3.99c0-0.82,0.01-1.63,0.03-2.43c0.02-0.8,0.08-1.64,0.16-2.52c0.08-0.89,0.19-1.87,0.33-2.95
		c0.14-1.08,0.33-2.33,0.59-3.74c0.21-2.47,0.55-4.88,1.04-7.23c0.48-2.35,1.24-4.41,2.28-6.19c0.42-0.72,1.16-1.7,2.25-2.95
		c1.08-1.25,2.38-2.69,3.9-4.34s3.21-3.44,5.08-5.4c1.84-1.95,3.75-4.01,5.72-6.17s3.94-4.39,5.91-6.69c1.97-2.3,3.83-4.6,5.58-6.9
		c1.75-2.3,3.33-4.58,4.75-6.84c1.42-2.26,2.56-4.43,3.44-6.51c0.12-0.23,0.21-0.42,0.28-0.58c0.07-0.13,0.16-0.19,0.28-0.19
		s0.18,0.03,0.19,0.1c0.01,0.06,0.02,0.16,0.02,0.29c0,0.13-0.03,0.4-0.09,0.81c-0.06,0.41-0.13,0.89-0.22,1.43
		c-0.09,0.54-0.19,1.11-0.29,1.7c-0.1,0.59-0.2,1.11-0.29,1.54c-0.25,1.44-0.57,2.79-0.95,4.07s-0.83,2.5-1.35,3.68
		c-0.52,1.18-1.09,2.35-1.73,3.49c-0.63,1.14-1.34,2.31-2.13,3.49c-2.49,3.88-5,7.41-7.55,10.58c-2.54,3.17-4.99,6.08-7.34,8.73
		c-2.35,2.65-4.56,5.05-6.63,7.21s-3.87,4.15-5.39,5.97c-1.52,1.83-2.72,3.51-3.61,5.07c-0.89,1.56-1.33,3.04-1.33,4.45
		c0,0.72,0.07,1.6,0.21,2.64c0.14,1.04,0.36,2.34,0.67,3.89c0.31,1.56,0.71,3.41,1.21,5.57c0.5,2.16,1.09,4.7,1.78,7.63
		c0.48,2,0.85,3.75,1.09,5.24c0.24,1.49,0.36,2.8,0.36,3.93c0,0.75-0.02,1.45-0.05,2.1c-0.04,0.66-0.09,1.32-0.16,2
		c-0.07,0.68-0.16,1.38-0.28,2.1c-0.12,0.72-0.25,1.5-0.42,2.35c-0.35,2-0.7,3.76-1.05,5.26c-0.36,1.5-0.74,2.84-1.16,4.01
		c-0.42,1.17-0.88,2.23-1.38,3.18c-0.51,0.95-1.08,1.86-1.73,2.74c-1.66,2.18-3.41,3.83-5.25,4.95c-1.84,1.12-3.75,1.68-5.73,1.68
		c-0.97,0-1.96-0.24-2.99-0.71c-1.02-0.48-1.95-1.11-2.78-1.89c-0.83-0.78-1.51-1.68-2.05-2.7c-0.54-1.01-0.81-2.05-0.81-3.1
		c0-0.67,0.13-1.46,0.38-2.39c0.25-0.92,0.66-2.03,1.21-3.31H756.96z"/>
	<path d="M830.18,479.4c-0.12,0-0.19-0.04-0.22-0.13c-0.03-0.09-0.05-0.2-0.05-0.33c0-0.69-0.22-1.39-0.67-2.08
		c-0.45-0.69-0.95-1.43-1.5-2.2c-0.55-0.77-1.05-1.6-1.5-2.49c-0.45-0.89-0.67-1.87-0.67-2.95c0-0.8,0.06-1.59,0.17-2.37
		c0.11-0.78,0.25-1.55,0.4-2.29s0.31-1.48,0.47-2.2c0.16-0.69,0.3-1.36,0.41-2c0.32-1.9,0.81-3.54,1.45-4.92
		c0.64-1.37,1.41-2.51,2.3-3.39c0.89-0.89,1.87-1.54,2.94-1.95s2.2-0.62,3.4-0.62c1.54,0,2.98,0.38,4.32,1.14
		c1.33,0.76,2.5,1.79,3.49,3.1c0.99,1.31,1.77,2.83,2.33,4.55c0.56,1.72,0.85,3.55,0.85,5.47c0,1.16-0.12,2.38-0.36,3.68
		c-0.24,1.3-0.49,2.49-0.74,3.57c-0.62,2.98-1.3,5.49-2.04,7.54s-1.56,3.79-2.47,5.24c-0.91,1.45-1.92,2.68-3.02,3.68
		c-1.11,1-2.33,1.94-3.66,2.81c-0.85,0.57-1.81,1.05-2.87,1.45c-1.06,0.4-2.14,0.74-3.25,1.02c-1.11,0.28-2.21,0.52-3.3,0.71
		c-1.09,0.19-2.11,0.35-3.04,0.46c-0.93,0.12-1.75,0.21-2.44,0.29c-0.71,0.08-1.23,0.15-1.55,0.23c-0.69,0.13-1.29,0.31-1.8,0.54
		c-0.53,0.21-0.92,0.31-1.17,0.31c-0.25,0-0.41-0.04-0.47-0.12s-0.09-0.19-0.09-0.35c0-0.08,0.07-0.17,0.21-0.29
		c0.14-0.12,0.31-0.24,0.52-0.39s0.43-0.28,0.66-0.4c0.23-0.13,0.44-0.26,0.62-0.39c1.61-0.95,3.4-2.01,5.35-3.18
		c1.96-1.17,3.93-2.41,5.92-3.72c1.99-1.31,3.92-2.69,5.79-4.14c1.87-1.45,3.52-2.94,4.96-4.45c1.44-1.52,2.6-3.05,3.47-4.61
		s1.31-3.1,1.31-4.65c0-1.03-0.19-2.13-0.57-3.3c-0.38-1.17-0.95-2.25-1.71-3.26c-0.76-1-1.72-1.83-2.88-2.49
		c-1.16-0.66-2.53-0.98-4.09-0.98c-0.9,0-1.73,0.13-2.5,0.41c-0.77,0.27-1.45,0.62-2.02,1.04c-0.58,0.42-1.02,0.9-1.35,1.43
		c-0.32,0.53-0.48,1.04-0.48,1.52c0,0.46,0.18,0.94,0.54,1.45c0.36,0.5,0.75,1.05,1.19,1.64c0.44,0.62,0.83,1.29,1.19,2.02
		c0.36,0.73,0.54,1.55,0.54,2.45c0,1.16-0.15,2.45-0.45,3.89c-0.3,1.44-0.75,2.92-1.35,4.43c-0.07,0.15-0.13,0.28-0.19,0.39
		C830.42,479.35,830.32,479.4,830.18,479.4z"/>
</g>
</svg>
